# xmcd
#
# Track frame offsets:
#	150
#	18042
#	31733
#	45782
#	61859
#	75004
#	92583
#	112164
#	128112
#	148331
#	166223
#	179914
#	193963
#	210040
#	223185
#	240764
#	260345
#	276293
#
# Disc length: 3953 seconds
#
# Revision: 1
# Processed by: cddbd v1.5.2PL0 Copyright (c) Steve Scherf et al.
# Submitted via: audiograbber 1.83.01
#
DISCID=ec0f6f12
DTITLE=Various Artist - PHMC1210
DYEAR=2012
DGENRE=Karaoke
TTITLE0=Colt Ford W Jake Owen - Back
TTITLE1=Alan Jackson - Life Keep Bringin' Me Down
TTITLE2=Toby Keith - I Like Girls That Drink Beer
TTITLE3=Jana Kramer - When You're Lonely
TTITLE4=JB and The Moonshine Band - No Better Than This
TTITLE5=Candy Coburn - That Thing You Do
TTITLE6=Shooter Jennings - The Real Me
TTITLE7=Craig Morrison - Doin' Country
TTITLE8=Randy Travis Feat Don Henley - More Life
TTITLE9=Colt Ford W Jake Owen - Back (MPX)
TTITLE10=Alan Jackson - Life Keep Bringin' Me Down (MPX)
TTITLE11=Toby Keith - I Like Girls That Drink Beer (MPX)
TTITLE12=Jana Kramer - When You're Lonely (MPX)
TTITLE13=JB and The Moonshine Band - No Better Than This (MPX)
TTITLE14=Candy Coburn - That Thing You Do (MPX)
TTITLE15=Shooter Jennings - The Real Me (MPX)
TTITLE16=Craig Morrison - Doin' Country (MPX)
TTITLE17=Randy Travis Feat Don Henley - More Life (MPX)
EXTD=
EXTT0=
EXTT1=
EXTT2=
EXTT3=
EXTT4=
EXTT5=
EXTT6=
EXTT7=
EXTT8=
EXTT9=
EXTT10=
EXTT11=
EXTT12=
EXTT13=
EXTT14=
EXTT15=
EXTT16=
EXTT17=
PLAYORDER=
